<svg width="612" height="612" viewBox="0 0 512 512" fill="none" xmlns="http://www.w3.org/2000/svg">
<path d="M386.55 357.312H386.538L376 353.626L386.217 341.707C395.71 330.631 402.73 317.657 406.808 303.652C410.886 289.646 411.929 274.932 409.867 260.491L407.921 246.868C407.687 245.232 406.952 243.709 405.818 242.508C404.683 241.306 403.204 240.486 401.585 240.159C399.965 239.832 398.284 240.014 396.772 240.681C395.26 241.348 393.992 242.467 393.142 243.884L381.487 263.3C377.083 270.598 370.139 276.011 361.987 278.5C362.901 269.504 361.809 260.417 358.789 251.894C355.769 243.371 350.896 235.623 344.521 229.21L343.74 228.429C343.158 227.848 342.696 227.157 342.382 226.397C342.067 225.637 341.905 224.823 341.905 224C341.905 223.177 342.067 222.363 342.382 221.603C342.696 220.843 343.158 220.153 343.74 219.571C353.368 209.961 359.108 197.134 359.861 183.551C360.613 169.968 356.324 156.586 347.817 145.971L342.247 139C341.211 137.705 339.799 136.765 338.205 136.308C336.611 135.851 334.915 135.9 333.351 136.449C331.786 136.998 330.431 138.02 329.472 139.372C328.514 140.725 327.999 142.342 328 144C328.025 151.423 325.934 158.7 321.973 164.977C318.011 171.255 312.343 176.274 305.632 179.446L308.682 155.046C309.837 145.734 309.038 136.284 306.336 127.298C303.634 118.313 299.087 109.99 292.987 102.86L276.363 83.4641C268.388 74.1552 264.003 62.3021 264 50.0441V24.0001C264 22.3655 263.499 20.7702 262.565 19.4289C261.631 18.0875 260.308 17.0644 258.775 16.4974C257.242 15.9303 255.572 15.8464 253.99 16.257C252.408 16.6677 250.99 17.5531 249.926 18.7941L221.774 51.6381C214.952 59.6391 210.92 69.643 210.287 80.1381C209.653 90.6333 212.452 101.05 218.262 109.813L223.017 116.946C225.614 120.836 227.332 125.244 228.053 129.864C228.775 134.485 228.481 139.207 227.193 143.703L222.208 161.15C221.5 163.629 219.847 165.731 217.604 167.002C215.362 168.273 212.709 168.612 210.219 167.945C207.729 167.278 205.6 165.66 204.293 163.438C202.985 161.216 202.603 158.57 203.229 156.069L204.293 151.812C205.748 146.112 205.2 140.085 202.743 134.74C200.285 129.395 196.067 125.057 190.793 122.45L155.582 104.845C154.167 104.137 152.573 103.865 151.003 104.063C149.433 104.261 147.957 104.919 146.762 105.956C145.566 106.993 144.705 108.361 144.287 109.887C143.869 111.413 143.913 113.029 144.414 114.53L148.7 127.4C150.688 133.373 151.085 139.761 149.853 145.935L148.126 154.572C146.635 161.943 146.822 169.555 148.673 176.844C150.524 184.133 153.991 190.912 158.818 196.679L171.518 211.915C175.104 216.214 177.584 221.325 178.741 226.802C179.898 232.28 179.698 237.957 178.157 243.339L174.091 257.57C173.284 260.395 171.593 262.887 169.267 264.682C166.941 266.476 164.101 267.479 161.163 267.543C158.226 267.606 155.346 266.728 152.944 265.036C150.542 263.344 148.745 260.927 147.816 258.14L143.593 245.47C143.092 243.969 142.158 242.65 140.908 241.68C139.658 240.71 138.148 240.132 136.57 240.02C134.992 239.908 133.416 240.267 132.041 241.05C130.667 241.834 129.555 243.008 128.848 244.423L121.448 259.229C115.808 270.606 113.164 283.233 113.767 295.916C114.369 308.6 118.199 320.92 124.892 331.71L137.775 352.323L123.5 357.31H123.487C115.475 360.11 108.903 365.978 105.217 373.623C103.392 377.408 102.331 381.516 102.093 385.712C101.856 389.908 102.447 394.109 103.833 398.077C105.22 402.044 107.374 405.699 110.173 408.834C112.972 411.969 116.361 414.521 120.146 416.346C127.791 420.032 136.588 420.53 144.6 417.73L144.635 417.717L170.14 408.8L152.994 431.278C147.846 438.026 145.589 446.543 146.72 454.954C147.851 463.366 152.278 470.984 159.026 476.132C165.774 481.28 174.29 483.537 182.702 482.406C191.114 481.274 198.732 476.848 203.88 470.1L224 443.719V464C224 472.487 227.371 480.626 233.372 486.628C239.374 492.629 247.513 496 256 496C264.487 496 272.626 492.629 278.627 486.628C284.628 480.626 288 472.487 288 464V446.293L306.136 470.071L306.155 470.097C308.696 473.446 311.875 476.258 315.51 478.37C319.145 480.482 323.163 481.852 327.331 482.4C328.767 482.594 330.215 482.692 331.665 482.692C337.624 482.678 343.461 481.001 348.518 477.849C353.576 474.697 357.653 470.196 360.291 464.852C362.928 459.509 364.022 453.535 363.448 447.603C362.874 441.672 360.656 436.018 357.043 431.279V431.279L339.9 408.8L365.427 417.721H365.44C369.41 419.12 373.617 419.722 377.82 419.492C382.023 419.263 386.139 418.206 389.933 416.383C393.727 414.56 397.124 412.007 399.93 408.869C402.735 405.731 404.894 402.07 406.283 398.096C407.672 394.123 408.263 389.914 408.022 385.712C407.782 381.509 406.714 377.396 404.882 373.607C403.049 369.817 400.487 366.427 397.341 363.629C394.196 360.832 390.53 358.682 386.553 357.304L386.55 357.312ZM138.45 323.229C133.387 315.066 130.41 305.782 129.782 296.196C129.154 286.611 130.895 277.018 134.85 268.264C137.713 273.404 142.035 277.579 147.27 280.264C152.505 282.948 158.418 284.021 164.262 283.347C170.106 282.673 175.62 280.282 180.106 276.476C184.592 272.67 187.85 267.62 189.468 261.964L193.534 247.732C195.792 239.843 196.085 231.521 194.389 223.492C192.692 215.463 189.057 207.971 183.801 201.67L171.101 186.435C167.808 182.501 165.443 177.876 164.18 172.903C162.918 167.931 162.79 162.738 163.807 157.709L165.535 149.071C166.95 141.98 166.878 134.671 165.324 127.609L183.624 136.759C185.631 137.75 187.236 139.401 188.171 141.434C189.107 143.467 189.315 145.76 188.762 147.929L187.698 152.186C186.046 158.761 187.047 165.723 190.483 171.567C193.919 177.411 199.516 181.67 206.064 183.423C212.613 185.177 219.589 184.285 225.486 180.94C231.383 177.595 235.728 172.066 237.584 165.545L242.569 148.097C244.496 141.371 244.935 134.307 243.855 127.394C242.776 120.482 240.205 113.887 236.32 108.069L231.565 100.936C227.682 95.0778 225.81 88.1148 226.234 81.0992C226.658 74.0835 229.354 67.3964 233.914 62.0481L248 45.6261V50.0441C248.004 66.1211 253.755 81.6672 264.215 93.8761L280.839 113.271C285.49 118.707 288.956 125.053 291.017 131.905C293.077 138.756 293.686 145.961 292.805 153.061L288.062 191.008C287.889 192.389 288.08 193.791 288.615 195.075C289.15 196.36 290.01 197.483 291.112 198.333C292.214 199.183 293.518 199.732 294.896 199.924C296.274 200.116 297.679 199.945 298.971 199.428L309.26 195.312C316.316 192.515 322.717 188.289 328.06 182.898C333.402 177.507 337.572 171.068 340.305 163.987C343.689 171.284 344.748 179.444 343.339 187.363C341.93 195.281 338.122 202.575 332.429 208.257C328.253 212.432 325.908 218.095 325.908 224C325.908 229.905 328.253 235.568 332.429 239.743L333.21 240.524C338.66 246.005 342.607 252.798 344.67 260.247C346.733 267.697 346.843 275.552 344.989 283.056L344.238 286.056C343.942 287.236 343.92 288.467 344.172 289.657C344.423 290.847 344.943 291.964 345.692 292.923C346.44 293.881 347.397 294.657 348.49 295.19C349.583 295.723 350.784 296 352 296C360.58 295.976 369.013 293.772 376.508 289.595C384.002 285.419 390.314 279.407 394.849 272.124C395.566 293.754 388.151 314.868 374.067 331.3L359.783 347.96L284.609 321.69C281.989 316.446 277.979 312.023 273.016 308.904C268.054 305.785 262.329 304.09 256.468 304.004C250.607 303.917 244.835 305.443 239.783 308.415C234.73 311.387 230.592 315.69 227.819 320.854L153.254 346.911L138.45 323.229ZM240 336C240 331.757 241.686 327.687 244.686 324.686C247.687 321.686 251.756 320 256 320C260.243 320 264.313 321.686 267.314 324.686C270.314 327.687 272 331.757 272 336V436.305C267.139 433.485 261.619 432 256 432C250.38 432 244.861 433.485 240 436.305V336ZM127.1 401.935C124.249 400.561 121.87 398.372 120.263 395.646C118.657 392.92 117.894 389.778 118.073 386.619C118.252 383.46 119.363 380.424 121.267 377.896C123.171 375.369 125.781 373.462 128.769 372.418V372.418C131.253 371.55 133.912 371.309 136.512 371.714C139.112 372.12 141.571 373.16 143.673 374.743C145.774 376.326 147.453 378.403 148.56 380.79C149.667 383.177 150.169 385.8 150.02 388.427C149.872 391.054 149.077 393.603 147.708 395.85C146.339 398.097 144.436 399.971 142.17 401.307C139.903 402.643 137.342 403.399 134.713 403.509C132.084 403.619 129.469 403.078 127.099 401.936L127.1 401.935ZM165.494 393.482C166.539 387.962 166.112 382.265 164.255 376.963C162.397 371.661 159.175 366.942 154.914 363.282L223.023 339.482L187.764 385.7L165.494 393.482ZM191.163 460.394C189.888 462.065 188.297 463.468 186.481 464.523C184.664 465.579 182.657 466.267 180.575 466.547C178.492 466.827 176.375 466.694 174.344 466.156C172.313 465.618 170.408 464.685 168.737 463.411C167.067 462.136 165.664 460.545 164.608 458.729C163.552 456.912 162.865 454.905 162.585 452.823C162.304 450.74 162.437 448.623 162.975 446.592C163.513 444.561 164.446 442.656 165.721 440.985V440.985C168.295 437.611 172.103 435.398 176.309 434.832C180.515 434.266 184.773 435.394 188.147 437.968C191.521 440.542 193.734 444.351 194.3 448.556C194.866 452.762 193.738 457.02 191.164 460.394H191.163ZM207.975 438.354C205.809 433.17 202.315 428.648 197.846 425.245C193.376 421.841 188.088 419.675 182.515 418.966L224 364.572V417.338L207.975 438.354ZM256 480C252.835 480 249.742 479.062 247.111 477.304C244.479 475.546 242.429 473.047 241.218 470.123C240.007 467.199 239.69 463.982 240.307 460.879C240.925 457.775 242.448 454.924 244.686 452.686C246.924 450.449 249.775 448.925 252.878 448.308C255.982 447.69 259.199 448.007 262.123 449.218C265.046 450.429 267.545 452.48 269.303 455.111C271.061 457.742 272 460.836 272 464C271.995 468.242 270.307 472.309 267.308 475.308C264.308 478.308 260.242 479.995 256 480V480ZM288 367.147L327.525 418.966C321.952 419.675 316.664 421.841 312.194 425.244C307.724 428.648 304.231 433.17 302.066 438.354L288 419.913V367.147ZM341.3 463.411C338.784 465.329 335.757 466.457 332.6 466.655C329.443 466.852 326.298 466.108 323.564 464.519C320.829 462.929 318.628 460.564 317.237 457.723C315.846 454.882 315.329 451.693 315.751 448.558C316.172 445.423 317.514 442.484 319.606 440.111C321.698 437.739 324.447 436.04 327.504 435.23C330.562 434.419 333.791 434.533 336.783 435.558C339.776 436.582 342.397 438.471 344.317 440.985C345.605 442.65 346.549 444.555 347.095 446.588C347.641 448.621 347.778 450.742 347.497 452.829C347.216 454.915 346.524 456.925 345.46 458.742C344.396 460.558 342.982 462.146 341.3 463.411V463.411ZM288 340.767V339.823L355.128 363.281C350.866 366.941 347.644 371.66 345.786 376.962C343.929 382.264 343.502 387.961 344.548 393.481L322.272 385.7L288 340.767ZM391.1 392.8C390.056 395.787 388.15 398.398 385.622 400.302C383.095 402.206 380.06 403.318 376.9 403.497C373.741 403.676 370.599 402.914 367.873 401.308C365.146 399.702 362.958 397.323 361.583 394.472C360.209 391.622 359.71 388.428 360.151 385.294C360.592 382.161 361.952 379.228 364.059 376.867C366.167 374.507 368.927 372.824 371.991 372.032C375.055 371.24 378.284 371.374 381.272 372.418C383.255 373.111 385.083 374.188 386.651 375.587C388.218 376.987 389.495 378.681 390.407 380.574C391.32 382.466 391.851 384.52 391.97 386.618C392.088 388.716 391.793 390.816 391.1 392.8Z" fill="#ffffff" id="id_101"></path>
<path d="M280 256C282.122 256 284.157 255.157 285.657 253.657C287.157 252.157 288 250.122 288 248V224C288 221.878 287.157 219.843 285.657 218.343C284.157 216.843 282.122 216 280 216C277.878 216 275.843 216.843 274.343 218.343C272.843 219.843 272 221.878 272 224V248C272 250.122 272.843 252.157 274.343 253.657C275.843 255.157 277.878 256 280 256Z" fill="#ffffff" id="id_102"></path>
<path d="M280 288C282.122 288 284.157 287.157 285.657 285.657C287.157 284.157 288 282.122 288 280V272C288 269.878 287.157 267.843 285.657 266.343C284.157 264.843 282.122 264 280 264C277.878 264 275.843 264.843 274.343 266.343C272.843 267.843 272 269.878 272 272V280C272 282.122 272.843 284.157 274.343 285.657C275.843 287.157 277.878 288 280 288Z" fill="#ffffff" id="id_103"></path>
<path d="M248 288C250.122 288 252.157 287.157 253.657 285.657C255.157 284.157 256 282.122 256 280V232C256 229.878 255.157 227.843 253.657 226.343C252.157 224.843 250.122 224 248 224C245.878 224 243.843 224.843 242.343 226.343C240.843 227.843 240 229.878 240 232V280C240 282.122 240.843 284.157 242.343 285.657C243.843 287.157 245.878 288 248 288Z" fill="#ffffff" id="id_104"></path>
<path d="M112 184C114.122 184 116.157 183.157 117.657 181.657C119.157 180.157 120 178.122 120 176V144C120 141.878 119.157 139.843 117.657 138.343C116.157 136.843 114.122 136 112 136C109.878 136 107.843 136.843 106.343 138.343C104.843 139.843 104 141.878 104 144V176C104 178.122 104.843 180.157 106.343 181.657C107.843 183.157 109.878 184 112 184Z" fill="#ffffff" id="id_105"></path>
<path d="M112 224C114.122 224 116.157 223.157 117.657 221.657C119.157 220.157 120 218.122 120 216V208C120 205.878 119.157 203.843 117.657 202.343C116.157 200.843 114.122 200 112 200C109.878 200 107.843 200.843 106.343 202.343C104.843 203.843 104 205.878 104 208V216C104 218.122 104.843 220.157 106.343 221.657C107.843 223.157 109.878 224 112 224Z" fill="#fafafa" id="id_106"></path>
<path d="M184.675 84.8999C186.797 84.8999 188.831 84.057 190.332 82.5568C191.832 81.0565 192.675 79.0216 192.675 76.8999V44.8999C192.675 42.7782 191.832 40.7433 190.332 39.243C188.831 37.7428 186.797 36.8999 184.675 36.8999C182.553 36.8999 180.518 37.7428 179.018 39.243C177.518 40.7433 176.675 42.7782 176.675 44.8999V76.8999C176.675 79.0216 177.518 81.0565 179.018 82.5568C180.518 84.057 182.553 84.8999 184.675 84.8999Z" fill="#ffffff" id="id_107"></path>
<path d="M328 104C330.122 104 332.157 103.157 333.657 101.657C335.157 100.157 336 98.1217 336 96V72C336 69.8783 335.157 67.8434 333.657 66.3431C332.157 64.8429 330.122 64 328 64C325.878 64 323.843 64.8429 322.343 66.3431C320.843 67.8434 320 69.8783 320 72V96C320 98.1217 320.843 100.157 322.343 101.657C323.843 103.157 325.878 104 328 104Z" fill="#f5f5f5" id="id_108"></path>
<path d="M320 304C322.122 304 324.157 303.157 325.657 301.657C327.157 300.157 328 298.122 328 296V272C328 269.878 327.157 267.843 325.657 266.343C324.157 264.843 322.122 264 320 264C317.878 264 315.843 264.843 314.343 266.343C312.843 267.843 312 269.878 312 272V296C312 298.122 312.843 300.157 314.343 301.657C315.843 303.157 317.878 304 320 304Z" fill="#ffffff" id="id_109"></path>
<path d="M328 48C330.122 48 332.157 47.1571 333.657 45.6569C335.157 44.1566 336 42.1217 336 40V32C336 29.8783 335.157 27.8434 333.657 26.3431C332.157 24.8429 330.122 24 328 24C325.878 24 323.843 24.8429 322.343 26.3431C320.843 27.8434 320 29.8783 320 32V40C320 42.1217 320.843 44.1566 322.343 45.6569C323.843 47.1571 325.878 48 328 48Z" fill="#ffffff" id="id_110"></path>
<path d="M384 216C386.122 216 388.157 215.157 389.657 213.657C391.157 212.157 392 210.122 392 208V168C392 165.878 391.157 163.843 389.657 162.343C388.157 160.843 386.122 160 384 160C381.878 160 379.843 160.843 378.343 162.343C376.843 163.843 376 165.878 376 168V208C376 210.122 376.843 212.157 378.343 213.657C379.843 215.157 381.878 216 384 216Z" fill="#ffffff" id="id_111"></path>
<path d="M384 144C386.122 144 388.157 143.157 389.657 141.657C391.157 140.157 392 138.122 392 136V120C392 117.878 391.157 115.843 389.657 114.343C388.157 112.843 386.122 112 384 112C381.878 112 379.843 112.843 378.343 114.343C376.843 115.843 376 117.878 376 120V136C376 138.122 376.843 140.157 378.343 141.657C379.843 143.157 381.878 144 384 144Z" fill="#ffffff" id="id_112"></path>
<path d="M200 272C197.878 272 195.843 272.843 194.343 274.343C192.843 275.843 192 277.878 192 280V296C192 298.122 192.843 300.157 194.343 301.657C195.843 303.157 197.878 304 200 304C202.122 304 204.157 303.157 205.657 301.657C207.157 300.157 208 298.122 208 296V280C208 277.878 207.157 275.843 205.657 274.343C204.157 272.843 202.122 272 200 272Z" fill="#fafafa" id="id_113"></path>
</svg>